<!DOCTYPE svg PUBLIC "-//W3C//DTD SVG 20010904//EN" "http://www.w3.org/TR/2001/REC-SVG-20010904/DTD/svg10.dtd">
<svg version="1.0" xmlns="http://www.w3.org/2000/svg" width="464px" height="211px" viewBox="0 0 4640 2110" preserveAspectRatio="xMidYMid meet">
<g id="layer101" fill="#ed5e00" stroke="none">
 <path d="M293 2076 c-166 -54 -262 -220 -263 -453 0 -228 70 -403 225 -558 164 -164 348 -233 593 -223 62 3 115 8 119 11 3 3 8 26 10 50 l5 45 56 -26 c78 -36 184 -41 230 -12 41 25 62 73 62 139 0 27 -22 161 -49 298 -79 395 -86 514 -36 607 l24 45 -27 19 c-78 55 -114 67 -208 67 -81 0 -94 -3 -131 -27 -51 -34 -82 -96 -94 -190 -5 -39 -11 -73 -13 -75 -2 -3 -19 24 -37 58 -46 86 -116 159 -191 199 -55 30 -74 34 -148 37 -52 2 -101 -2 -127 -11z m372 -373 c54 -28 103 -72 138 -126 29 -44 36 -66 46 -147 6 -52 23 -159 37 -238 14 -79 24 -146 21 -148 -3 -3 -34 0 -71 7 -261 45 -465 311 -417 542 14 63 60 121 103 130 35 8 109 -3 143 -20z"/>
 <path d="M1657 2076 c-80 -30 -118 -93 -125 -206 -5 -91 14 -227 74 -533 l46 -229 -34 -51 c-19 -29 -42 -64 -52 -79 l-17 -26 48 -22 c99 -45 251 -90 300 -90 61 0 98 31 108 90 7 41 -12 150 -45 259 -11 36 -17 67 -15 70 8 7 11 1 44 -84 46 -116 102 -205 166 -263 65 -60 107 -76 185 -70 106 8 171 75 178 184 4 54 0 72 -22 119 -49 98 -122 140 -269 154 -52 5 -108 16 -124 25 -102 52 -154 201 -157 446 -1 101 3 134 18 174 l19 49 -24 20 c-82 66 -218 95 -302 63z"/>
 <path d="M2823 2076 c-166 -54 -262 -220 -263 -453 0 -228 70 -403 225 -558 84 -84 154 -131 255 -172 66 -26 190 -53 248 -53 l37 0 -41 -38 c-57 -55 -90 -101 -104 -147 -11 -38 -9 -46 40 -163 29 -68 56 -122 60 -120 9 3 280 239 335 291 76 72 83 74 310 91 116 9 228 18 250 21 22 2 46 4 53 4 15 1 16 28 2 67 -7 19 -24 35 -48 46 -48 22 -65 50 -72 117 -5 53 -6 55 -40 64 -19 5 -73 7 -120 5 l-86 -3 -52 265 c-81 412 -87 520 -37 614 l24 45 -27 19 c-78 55 -114 67 -208 67 -81 0 -94 -3 -131 -27 -51 -34 -82 -96 -94 -190 -5 -39 -11 -73 -13 -75 -2 -3 -19 24 -37 58 -46 86 -116 159 -191 199 -55 30 -74 34 -148 37 -52 2 -101 -2 -127 -11z m372 -373 c54 -28 103 -72 138 -126 29 -44 36 -66 46 -147 6 -52 23 -159 37 -238 14 -79 24 -146 21 -148 -3 -3 -34 0 -71 7 -261 45 -465 311 -417 542 14 63 60 121 103 130 35 8 109 -3 143 -20z"/>
 <path d="M4167 1448 c-26 -27 -47 -83 -47 -131 0 -40 32 -125 74 -196 31 -53 35 -67 30 -105 -6 -41 -5 -45 34 -76 47 -37 68 -101 59 -176 -7 -64 -37 -101 -238 -298 -134 -132 -184 -176 -203 -176 -16 0 -27 7 -31 20 -5 17 26 53 177 199 101 98 181 181 178 183 -3 3 -99 -3 -215 -13 -115 -10 -219 -18 -230 -18 -12 -1 -154 -118 -345 -288 -323 -284 -358 -323 -316 -339 15 -6 812 51 861 61 11 3 164 132 340 287 318 281 350 316 313 339 -12 8 -29 7 -158 -6 l-51 -6 6 48 c4 30 1 73 -9 117 -13 56 -14 75 -4 103 11 29 10 38 -6 68 -10 19 -31 38 -47 44 -21 7 -30 18 -36 48 -14 67 -7 194 15 255 14 38 17 60 10 64 -5 4 -38 9 -73 12 -58 4 -66 2 -88 -20z"/>
 </g>

</svg>